
<svg width="420px" height="858px" viewBox="0 0 420 858" version="1.1" xmlns="http://www.w3.org/2000/svg" xmlns:xlink="http://www.w3.org/1999/xlink">
    <!-- Generator: Sketch 48.2 (47327) - http://www.bohemiancoding.com/sketch -->
    <desc>Created with Sketch.</desc>
    <defs></defs>
    <g id="Page-1" stroke="none" stroke-width="1" fill="none" fill-rule="evenodd">
        <g id="iphone" fill="#FFFFFF" fill-rule="nonzero">
            <path d="M187.659575,857.238806 C187.659575,857.238806 187.659575,856.122609 189.893617,856.122609 L230.106383,856.122609 C232.340425,856.122609 232.340425,857.238806 232.340425,857.238806 L341.263098,857.238806 C394.083518,857.238806 417.765957,833.559544 417.765957,780.761597 L417.765957,245.563199 L416.648936,243.330807 L416.648936,183.056204 L417.765957,180.82381 L417.765957,76.4772092 C417.765957,23.6792613 394.083518,5.68434189e-14 341.263098,5.68434189e-14 L78.7369018,5.68434189e-14 C25.9164829,5.68434189e-14 2.23404255,23.6792613 2.23404255,76.4772092 L2.23404255,106.038654 L3.35106383,108.271047 L3.35106383,142.873134 L2.23404255,145.105527 L2.23404255,178.591417 L3.35106383,180.82381 L3.35106383,321.464552 L2.23404255,323.696945 L2.23404255,780.761597 C2.23404255,833.012491 25.4282651,856.744985 77.1044207,857.231174 C77.1044207,857.231174 77.0744681,856.122609 79.3085107,856.122609 L86.0106383,856.122609 C88.2446808,856.122609 88.2446808,857.238806 88.2446808,857.238806 L187.659575,857.238806 Z M339.10414,848.309235 L80.8958599,848.309235 C29.8059711,848.309235 11.1702128,829.659492 11.1702128,778.540582 L11.1702128,78.6982236 C11.1702128,27.5793138 29.8059711,8.9295709 80.8958599,8.9295709 L339.10414,8.9295709 C390.194029,8.9295709 408.829787,27.5793138 408.829787,78.6982236 L408.829787,778.540582 C408.829787,829.659492 390.194029,848.309235 339.10414,848.309235 Z M0,320.348357 L0,260.073752 L1.11702128,257.84136 L2.23404255,257.84136 L2.23404255,320.348355 L1.11702128,322.580749 L0,320.348357 Z M0,242.214611 L0,181.940007 L1.11702128,179.707614 L2.23404255,181.940007 L2.23404255,244.447004 L1.11702128,244.447004 L0,242.214611 Z M0,141.756938 L0,109.387244 L1.11469019,107.154851 L2.23404255,109.387244 L2.23404255,141.756938 L1.11469019,143.989331 L0,141.756938 Z M210,834.914878 C228.507414,834.914878 243.510639,819.922734 243.510639,801.428988 C243.510639,782.935241 228.507414,767.943096 210,767.943096 C191.492586,767.943096 176.489361,782.935241 176.489361,801.428988 C176.489361,819.922734 191.492586,834.914878 210,834.914878 Z M210,833.798683 C227.8905,833.798683 242.393617,819.306277 242.393617,801.428988 C242.393617,783.551699 227.8905,769.059294 210,769.059294 C192.1095,769.059294 177.606383,783.551699 177.606383,801.428988 C177.606383,819.306277 192.1095,833.798683 210,833.798683 Z M80.8958599,847.193039 C30.6299017,847.193039 12.287234,829.885616 12.287234,778.540582 L12.287234,78.6982236 C12.287234,27.3531892 30.6299017,10.0457673 80.8958599,10.0457673 L339.10414,10.0457673 C389.370097,10.0457673 407.712765,27.3531892 407.712765,78.6982236 L407.712765,778.540582 C407.712765,829.885616 389.370097,847.193039 339.10414,847.193039 L80.8958599,847.193039 Z M26.7991917,101.573869 C25.5705108,101.573869 24.5744681,102.570149 24.5744681,103.81406 L24.5744681,753.424745 C24.5744681,754.661969 25.5735234,755.664937 26.7991917,755.664937 L393.200809,755.664937 C394.429489,755.664937 395.425532,754.668656 395.425532,753.424745 L395.425532,103.81406 C395.425532,102.576837 394.426477,101.573869 393.200809,101.573869 L26.7991917,101.573869 Z M176.489361,54.1355236 C176.489361,58.0422108 178.494835,58.0422108 180.961343,58.0422108 L240.155679,58.0422108 C242.625486,58.0422108 244.62766,58.0422108 244.62766,54.1355236 C244.62766,50.2288362 242.622187,50.2288362 240.155679,50.2288362 L180.961343,50.2288362 C178.491536,50.2288362 176.489361,50.2288362 176.489361,54.1355236 Z M177.606383,54.1355236 C177.606383,56.9260145 179.117286,56.9260145 180.946712,56.9260145 L240.17031,56.9260145 C242.015122,56.9260145 243.510639,56.9260145 243.510639,54.1355236 C243.510639,51.3450326 241.999736,51.3450326 240.17031,51.3450326 L180.946712,51.3450326 C179.101899,51.3450326 177.606383,51.3450326 177.606383,54.1355236 Z M149.648329,54.1550446 C149.648329,50.7645244 146.897738,48.0159647 143.504712,48.0159647 C140.111686,48.0159647 137.361095,50.7645244 137.361095,54.1550446 C137.361095,57.545565 140.111686,60.2941248 143.504712,60.2941248 C146.897738,60.2941248 149.648329,57.545565 149.648329,54.1550446 Z M143.511216,59.1740241 C146.287328,59.1740241 148.537812,56.9252024 148.537812,54.1511405 C148.537812,51.3770784 146.287328,49.1282569 143.511216,49.1282569 C140.735105,49.1282569 138.484621,51.3770784 138.484621,54.1511405 C138.484621,56.9252024 140.735105,59.1740241 143.511216,59.1740241 Z M420,242.214611 L418.882979,244.447004 L417.765957,242.214611 L417.765957,184.172399 L418.882979,181.940007 L420,184.172399 L420,242.214611 Z" id="Shape"></path>
        </g>
    </g>
</svg>